<svg id="Layer_1" data-name="Layer 1" xmlns="http://www.w3.org/2000/svg" viewBox="0 0 404 405"><defs><style>.cls-1{fill:#fff;}.cls-2{fill:#3fa9f5;}</style></defs><title>logo-icon-white-blue</title><path class="cls-1" d="M80.71,283.67l105.34,60.82c3.81,2.2,6.9-.14,6.9-5.22V220.11c0-5.09-3.09-11-6.9-13.19L80.71,146.1c-3.81-2.2-6.9.14-6.9,5.22V270.48C73.81,275.57,76.9,281.47,80.71,283.67Z"/><path class="cls-2" d="M323.29,146.1l-31.76,18.34V250l-16.88-4.59-16.87,24.08V183.92l-39.83,23c-3.81,2.2-6.9,8.1-6.9,13.19V339.27c0,5.08,3.09,7.42,6.9,5.22l105.34-60.82c3.81-2.2,6.9-8.1,6.9-13.19V151.32C330.19,146.24,327.1,143.9,323.29,146.1Z"/><path class="cls-1" d="M207.78,190.77,313.11,130c3.81-2.21,3.33-6.05-1.07-8.59L208.85,61.79c-4.41-2.55-11.07-2.82-14.88-.62L88.64,122c-3.82,2.21-3.34,6,1.06,8.59l103.2,59.58C197.3,192.7,204,193,207.78,190.77Z"/></svg> 
